<svg id="Capa_1" enable-background="new 0 0 510 510" height="512" viewBox="0 0 510 510" width="512" xmlns="http://www.w3.org/2000/svg"><g><path d="m276.645 150h98.355v-26.221l-23.011-25.452c-5.408-5.981-12.819-9.271-20.876-9.271-.042 0-.083 0-.125 0-8.106.034-15.538 3.39-20.923 9.449-12.177 13.699-29.674 21.557-48.004 21.557h-14.12c-18.33 0-35.827-7.857-48.005-21.558-5.385-6.059-12.816-9.414-20.923-9.448-.042 0-.083 0-.125 0-8.058 0-15.467 3.289-20.875 9.271l-23.013 25.452v1.221 25h98.355z"/><path d="m287.69 209.454c4.609 12.289 16.523 20.546 29.648 20.546h13.89c15.865 0 28.772-12.907 28.772-28.772v-21.228h-83.355z"/><path d="m178.772 230h13.89c13.125 0 25.039-8.257 29.647-20.546l11.046-29.454h-83.355v21.228c0 15.865 12.907 28.772 28.772 28.772z"/><path d="m222.13 408.713 17.87-28.081v-5.626c-11.654-1.153-23.056-3.667-34.103-7.5z"/><path d="m411.107 430.442-45.18 15.06 5.375 64.498h138.698c0-47.066-22.73-91.236-61.03-118.593l-26.138-18.67c-5.904-4.217-12.108-7.981-18.555-11.266z"/><path d="m363.567 276.912c5.277-11.164 8.802-23.154 10.397-35.401-10.724 11.37-25.91 18.489-42.736 18.489h-13.89c-25.56 0-48.763-16.08-57.737-40.013l-4.601-12.268-4.601 12.268c-8.974 23.933-32.177 40.013-57.737 40.013h-13.89c-16.813 0-31.989-7.108-42.711-18.463 2.933 22.295 11.969 42.667 25.396 59.364 9.414 11.718 21.042 21.634 34.089 29.099 17.527 10.017 37.821 15.744 59.453 15.744 21.633 0 41.927-5.727 59.453-15.744 1.981-1.131 3.924-2.322 5.831-3.57l2.1-1.4c17.698-11.978 32.077-28.786 41.184-48.118z"/><path d="m140.076 69.653c12.677-14.021 30.787-22.063 49.689-22.063 19.118 0 37.368 8.195 50.069 22.484 2.312 2.601 5.634 4.093 9.115 4.093h12.103c3.481 0 6.803-1.492 9.115-4.093 12.7-14.288 30.949-22.483 50.067-22.484h.003.001c18.9 0 37.01 8.042 49.686 22.063l2.32 2.566c-10.207-41.464-47.631-72.219-92.244-72.219h-50c-44.613 0-82.037 30.755-92.243 72.218z"/><path d="m49 349.997c0 4.606.763 8.487 1.895 11.783l19.898-14.213c5.057-3.612 10.295-6.947 15.691-9.996 2.423-4.255 4.517-9.922 4.517-17.576 0-12.762-5.813-20.028-9.287-24.37-2.484-3.104-2.714-3.454-2.714-5.629 0-2.176.23-2.525 2.713-5.63 3.474-4.342 9.287-11.608 9.287-24.37s-5.813-20.028-9.287-24.37c-1.606-2.008-2.267-2.863-2.535-3.806 7.315 5.146 16.218 8.18 25.822 8.18h.673c-.443-4.715-.673-9.468-.673-14.256v-75.744c-24.813 0-45 20.187-45 45 0 2.513.217 4.975.615 7.376-.357.769-1.036 1.637-2.328 3.251-3.474 4.343-9.287 11.609-9.287 24.371s5.813 20.028 9.287 24.37c2.483 3.104 2.713 3.453 2.713 5.628 0 2.176-.23 2.525-2.713 5.63-3.474 4.342-9.287 11.608-9.287 24.37s5.813 20.028 9.287 24.37c2.483 3.104 2.713 3.453 2.713 5.628 0 2.178-.23 2.527-2.714 5.632-3.473 4.342-9.286 11.609-9.286 24.371z"/><path d="m144.073 445.502-45.18-15.06 6.849-69.167c-5.475 2.852-10.775 6.04-15.858 9.565-.549.383-1.104.756-1.654 1.138l-27.2 19.429c-38.3 27.357-61.03 71.527-61.03 118.593h138.698z"/><path d="m274.837 441.797-19.545-29.317-19.566 30.746 19.274 48.925z"/><path d="m334.073 424.498 44.82-14.94-5.966-60.249-22.778-7.593c-1.729 1.421-3.487 2.802-5.273 4.141l-64.663 164.143h60.985z"/><path d="m168.802 510h60.985l-64.663-164.143c-2.099-1.574-4.156-3.21-6.176-4.897l-21.811 7.698-6.031 60.9 44.82 14.94z"/><path d="m270 380.458 18.229 27.344 15.874-40.296c-11.047 3.833-22.449 6.347-34.103 7.5z"/></g></svg>